<svg width="50" height="50" viewBox="0 0 50 50" fill="none" xmlns="http://www.w3.org/2000/svg">
<circle cx="25" cy="25" r="25" fill="#FFC033"/>
<path d="M26.2515 39.1443C30.9438 39.1443 34.8284 37.452 37.3669 34.3366L33.3669 30.6443C31.5592 32.7597 29.29 33.8366 26.5977 33.8366C21.5592 33.8366 17.9823 30.2981 17.9823 25.2212C17.9823 20.1443 21.5592 16.6058 26.5977 16.6058C29.29 16.6058 31.5592 17.6827 33.3669 19.7597L37.3669 16.0674C34.8284 12.9904 30.9438 11.2981 26.29 11.2981C17.9053 11.2981 11.6746 17.1058 11.6746 25.2212C11.6746 33.3366 17.9053 39.1443 26.2515 39.1443Z" fill="black"/>
<path d="M6.73047 31.1301C9.71124 24.0148 14.4228 16.2263 16.5862 14.9042L13.341 29.2071L6.73047 31.1301Z" fill="black" stroke="black" stroke-width="0.120192" stroke-linecap="round" stroke-linejoin="round"/>
</svg>
