<svg width="96" height="30" viewBox="0 0 96 30" fill="none" xmlns="http://www.w3.org/2000/svg">
<path d="M96 28.6937V27.5254L95.409 26.7145L87.7146 20.5739L84.643 17.1667L83.5943 15.4264L82.6359 13.0693L81.1603 7.20356L80.0781 5.64503L78.1625 5.00698L76.3802 5.67097L71.5686 11.6735L67.4824 15.572L63.6094 18.3348L59.9632 20.1232L58.0426 20.5118L56.7268 20.5127L56.164 20.4064L54.9924 19.6916L54.4395 19.1003L53.7874 17.8142L52.1717 11.8797L50.5518 10.0023L48.1063 9.41101L44.7665 10.6281L29.1531 19.4232L28.0881 19.7057L27.3721 19.3464L26.5055 18.4559L24.7715 14.9419L23.6878 10.8859L22.5674 2.65357L21.0882 0.596499L18.539 0L16.3592 0.991739L10.5949 7.86311L2.43545 15.9902L0 18.958V21.2239L1.3194 23.0357L3.45629 23.7269L5.57476 23.0418L7.20697 20.9838L9.96597 15.9L12.2471 12.539L15.4729 8.85326L17.4009 7.23872L22.8703 20.8098L24.7872 23.7599L26.4109 25.0687L29.0913 25.6966L31.871 24.8609L33.7957 23.5107L38.6 19.2625L41.0329 17.553L44.9121 15.6215L46.6343 15.3496L48.4735 19.3338L51.2935 23.0966L53.6195 24.5814L56.0551 25.2806L57.7329 25.314L62.1438 24.0139L65.9652 21.7149L69.8256 18.5295L76.9931 11.4108L77.2663 12.3696L78.6314 15.2526L81.7961 19.8097L84.9606 23.0071L88.3837 25.9305L93.2053 29.6776L94.197 30L95.312 29.6376L96 28.6937Z" fill="#FFC033"/>
</svg>
