<svg width="18" height="19" viewBox="0 0 18 19" fill="none" xmlns="http://www.w3.org/2000/svg">
<path d="M7.40273 4.75248L4.83773 6.3125L3.66773 4.3925C3.24023 3.6875 3.46523 2.7575 4.17023 2.33C4.87523 1.9025 5.80523 2.12749 6.23273 2.83249L7.40273 4.75248Z" stroke="url(#paint0_linear_1911_1284)" stroke-width="1.5" stroke-linecap="round" stroke-linejoin="round"/>
<path d="M6.89935 15.83C7.39435 16.8425 8.59436 17.195 9.55436 16.6025L14.3769 13.67C15.3444 13.085 15.5769 11.8625 14.9094 10.955L12.8319 8.15002C11.9319 6.94252 10.2369 6.52999 8.86436 7.36999L6.49436 8.81002C5.11436 9.65002 4.69435 11.345 5.36185 12.695" stroke="url(#paint1_linear_1911_1284)" stroke-width="1.5" stroke-linecap="round" stroke-linejoin="round"/>
<path d="M8.06806 4.32348L4.22461 6.66393L5.78491 9.22623L9.62836 6.88578L8.06806 4.32348Z" stroke="url(#paint2_linear_1911_1284)" stroke-width="1.5" stroke-linecap="round" stroke-linejoin="round"/>
<path d="M10.7324 13.1075L11.9699 15.14" stroke="url(#paint3_linear_1911_1284)" stroke-width="1.5" stroke-linecap="round" stroke-linejoin="round"/>
<path d="M8.8125 14.2775L10.05 16.31" stroke="url(#paint4_linear_1911_1284)" stroke-width="1.5" stroke-linecap="round" stroke-linejoin="round"/>
<path d="M12.6523 11.9375L13.8899 13.97" stroke="url(#paint5_linear_1911_1284)" stroke-width="1.5" stroke-linecap="round" stroke-linejoin="round"/>
<defs>
<linearGradient id="paint0_linear_1911_1284" x1="3.45117" y1="4.21296" x2="7.40273" y2="4.21296" gradientUnits="userSpaceOnUse">
<stop stop-color="#FFC033"/>
<stop offset="1" stop-color="#FF9900"/>
</linearGradient>
<linearGradient id="paint1_linear_1911_1284" x1="5.05078" y1="11.9095" x2="15.2895" y2="11.9095" gradientUnits="userSpaceOnUse">
<stop stop-color="#FFC033"/>
<stop offset="1" stop-color="#FF9900"/>
</linearGradient>
<linearGradient id="paint2_linear_1911_1284" x1="5.00476" y1="7.94508" x2="8.84821" y2="5.60463" gradientUnits="userSpaceOnUse">
<stop stop-color="#FFC033"/>
<stop offset="1" stop-color="#FF9900"/>
</linearGradient>
<linearGradient id="paint3_linear_1911_1284" x1="10.7324" y1="14.1237" x2="11.9699" y2="14.1237" gradientUnits="userSpaceOnUse">
<stop stop-color="#FFC033"/>
<stop offset="1" stop-color="#FF9900"/>
</linearGradient>
<linearGradient id="paint4_linear_1911_1284" x1="8.8125" y1="15.2938" x2="10.05" y2="15.2938" gradientUnits="userSpaceOnUse">
<stop stop-color="#FFC033"/>
<stop offset="1" stop-color="#FF9900"/>
</linearGradient>
<linearGradient id="paint5_linear_1911_1284" x1="12.6523" y1="12.9538" x2="13.8899" y2="12.9538" gradientUnits="userSpaceOnUse">
<stop stop-color="#FFC033"/>
<stop offset="1" stop-color="#FF9900"/>
</linearGradient>
</defs>
</svg>
