<svg width="154" height="58" viewBox="0 0 154 58" fill="none" xmlns="http://www.w3.org/2000/svg">
<path fill-rule="evenodd" clip-rule="evenodd" d="M154 13.0979V12.3249L153.698 11.7005L153.269 11.4923L135.18 10.1424L118.263 9.35026L113.563 8.02023L106.858 6.35742L97.1836 4.36182L87.5307 2.99657L75.6011 1.74636L67.9943 1.10752L54.284 0.368855L36.7211 0L36.2094 0.556354V1.32854L36.7168 1.88469L51.6339 2.15305L51.6404 2.15327L65.6315 2.84353L65.6363 2.84382L72.9278 3.37418L72.9341 3.37474L87.4742 4.87732L87.48 4.87801L93.9063 5.7246L100.265 6.82539L106.759 8.23015L110.588 9.19448L100.931 9.04468L90.1757 9.16444L90.17 9.16458L79.2367 9.58845L79.2315 9.58872L68.1939 10.2944L57.6754 11.3548L47.5346 12.7681L38.0509 14.5156L32.2976 15.8648L24.3518 18.1981L17.404 20.8002L13.2504 22.7295L8.22655 25.7001L6.79365 26.7396L4.35296 28.8265L2.47374 30.9277L1.73111 32.0225L1.01 33.379L0.232962 35.5968L0.0442446 36.7499L0 38.1671L0.0969927 39.2669L0.330957 40.348L0.70171 41.4139L1.3251 42.7013L2.72515 44.6988L4.67409 46.5904L7.17926 48.3463L10.4385 50.1093L14.0507 51.6757L18.1625 53.0901L22.7534 54.3281L27.9116 55.4301L33.5389 56.3693L39.5044 57.1082L45.7458 57.6154L52.4333 57.9124L52.44 57.9126L59.4046 58L66.4338 57.8703L73.3725 57.5085L80.432 56.8994L87.4793 56.0758L94.306 55.0775L100.769 53.9319L107.045 52.5988L113.043 51.1059L118.616 49.486L123.652 47.7641L128.281 45.9087L132.624 43.844L136.214 41.7873L139.161 39.6657L141.553 37.4385L143.347 35.1224L144.123 33.6784L144.604 32.4568L144.896 31.209L144.995 29.9456L144.908 28.3694L144.637 27.0814L144.191 25.8107L143.456 24.311L141.732 21.8898L140.609 20.7029L137.887 18.3963L136.263 17.2457L132.535 15.0051L127.971 12.7907L124.275 11.4064L129.786 11.7066L129.79 11.7069L140.013 12.4794L153.25 13.9396L153.698 13.7223L154 13.0979ZM143.463 27.7384L143.697 28.8493L143.761 29.7793L143.688 30.703L143.44 31.765L143.056 32.743L142.53 33.6985L140.815 35.913L138.493 38.0749L135.6 40.1604L132.051 42.1934L128.106 44.0615L123.502 45.9094L118.488 47.6216L112.938 49.2371L103.848 51.4144L97.507 52.6468L97.5003 52.6479L90.8779 53.7158L90.8718 53.7167L83.9275 54.6303L83.9214 54.631L76.8619 55.3504L76.8552 55.351L69.8877 55.8364L69.8805 55.8367L62.9247 56.0806L62.918 56.0807L55.9036 56.1006L49.0666 55.9064L49.0596 55.9061L42.6203 55.5081L42.6119 55.5074L36.5456 54.8882L36.5367 54.8871L30.7476 54.0469L30.7385 54.0454L25.3531 53.0229L20.5017 51.861L16.1865 50.5437L12.3541 49.0613L9.22902 47.5474L6.49168 45.8658L4.3426 44.1081L2.75059 42.2561L2.17842 41.341L1.50789 39.6942L1.23531 37.9342L1.42592 36.1918L1.705 35.2293L2.56778 33.4249L4.09038 31.399L6.19034 29.3689L8.85593 27.3287L10.3837 26.3317L13.8273 24.3882L17.573 22.6573L22.0577 20.9089L27.0279 19.2564L32.4 17.739L32.4092 17.7366L38.134 16.3867L38.1423 16.3849L44.3452 15.1783L44.3518 15.1771L50.9222 14.1119L50.929 14.1109L61.1489 12.7938L61.1582 12.7928L75.553 11.5872L86.5936 11.0538L86.5989 11.0536L97.3386 10.8093L107.988 10.8742L107.992 10.8742L117.81 11.1153L122.743 12.675L127.798 14.6364L131.958 16.656L133.88 17.7494L137.235 19.9968L139.905 22.2614L141.879 24.5383L143.075 26.6331L143.463 27.7384Z" fill="url(#paint0_linear_1911_1250)"/>
<defs>
<linearGradient id="paint0_linear_1911_1250" x1="0" y1="29" x2="154" y2="29" gradientUnits="userSpaceOnUse">
<stop stop-color="#FFC033"/>
<stop offset="1" stop-color="#FF9900"/>
</linearGradient>
</defs>
</svg>
