<svg width="18" height="19" viewBox="0 0 18 19" fill="none" xmlns="http://www.w3.org/2000/svg">
<path d="M13.026 8.12751L14.031 7.06251C15.096 5.93751 15.576 4.65501 13.9185 3.08751C12.261 1.52751 11.0085 2.07501 9.94355 3.20001L3.78605 9.71751C3.55355 9.96501 3.32855 10.4525 3.28355 10.79L3.00605 13.22C2.90855 14.0975 3.53855 14.6975 4.40855 14.5475L6.82355 14.135C7.16105 14.075 7.63355 13.8275 7.86605 13.5725L10.8285 10.4375" stroke="url(#paint0_linear_1911_1274)" stroke-width="1.5" stroke-miterlimit="10" stroke-linecap="round" stroke-linejoin="round"/>
<path d="M8.91797 4.28749C9.24047 6.35749 10.9205 7.93999 13.0055 8.14999" stroke="url(#paint1_linear_1911_1274)" stroke-width="1.5" stroke-miterlimit="10" stroke-linecap="round" stroke-linejoin="round"/>
<path d="M2.25 17H10.5" stroke="url(#paint2_linear_1911_1274)" stroke-width="1.5" stroke-miterlimit="10" stroke-linecap="round" stroke-linejoin="round"/>
<path d="M13.5 17H15.75" stroke="url(#paint3_linear_1911_1274)" stroke-width="1.5" stroke-miterlimit="10" stroke-linecap="round" stroke-linejoin="round"/>
<defs>
<linearGradient id="paint0_linear_1911_1274" x1="2.99609" y1="8.34625" x2="15.0003" y2="8.34625" gradientUnits="userSpaceOnUse">
<stop stop-color="#FFC033"/>
<stop offset="1" stop-color="#FF9900"/>
</linearGradient>
<linearGradient id="paint1_linear_1911_1274" x1="8.91797" y1="6.21874" x2="13.0055" y2="6.21874" gradientUnits="userSpaceOnUse">
<stop stop-color="#FFC033"/>
<stop offset="1" stop-color="#FF9900"/>
</linearGradient>
<linearGradient id="paint2_linear_1911_1274" x1="2.25" y1="17.5" x2="10.5" y2="17.5" gradientUnits="userSpaceOnUse">
<stop stop-color="#FFC033"/>
<stop offset="1" stop-color="#FF9900"/>
</linearGradient>
<linearGradient id="paint3_linear_1911_1274" x1="13.5" y1="17.5" x2="15.75" y2="17.5" gradientUnits="userSpaceOnUse">
<stop stop-color="#FFC033"/>
<stop offset="1" stop-color="#FF9900"/>
</linearGradient>
</defs>
</svg>
