<svg width="31" height="44" viewBox="0 0 31 44" fill="none" xmlns="http://www.w3.org/2000/svg">
<path fill-rule="evenodd" clip-rule="evenodd" d="M27.8621 0.327116C28.6343 0.884872 28.8075 1.96205 28.2488 2.73307L3.56944 36.7949C3.01081 37.566 1.93193 37.7388 1.15969 37.1811C0.387462 36.6233 0.214308 35.5461 0.772944 34.7751L25.4523 0.713256C26.011 -0.0577593 27.0898 -0.23064 27.8621 0.327116Z" fill="url(#paint0_linear_2232_1053)"/>
<path fill-rule="evenodd" clip-rule="evenodd" d="M29.4876 22.1217C30.176 22.7834 30.1974 23.8777 29.5356 24.5659L11.3543 43.4693C10.6924 44.1575 9.59788 44.1789 8.90954 43.5172C8.22119 42.8556 8.19973 41.7613 8.8616 41.0731L27.0428 22.1697C27.7047 21.4815 28.7993 21.46 29.4876 22.1217Z" fill="url(#paint1_linear_2232_1053)"/>
<defs>
<linearGradient id="paint0_linear_2232_1053" x1="0.445313" y1="18.7541" x2="28.5765" y2="18.7541" gradientUnits="userSpaceOnUse">
<stop stop-color="#FFC033"/>
<stop offset="1" stop-color="#FF9900"/>
</linearGradient>
<linearGradient id="paint1_linear_2232_1053" x1="8.37891" y1="32.8195" x2="30.0182" y2="32.8195" gradientUnits="userSpaceOnUse">
<stop stop-color="#FFC033"/>
<stop offset="1" stop-color="#FF9900"/>
</linearGradient>
</defs>
</svg>
