<svg width="218" height="220" viewBox="0 0 218 220" fill="none" xmlns="http://www.w3.org/2000/svg">
<path fill-rule="evenodd" clip-rule="evenodd" d="M122.342 210.377C121.653 209.887 121.492 208.931 121.982 208.242C125.789 202.889 129.769 197.788 133.671 192.788C136.469 189.202 139.226 185.668 141.851 182.129C148.207 173.561 154.006 164.694 158.444 154.181C166.39 135.363 170.314 114.878 166.68 94.6875C164.805 84.2733 160.059 73.1618 152.909 64.5338C145.766 55.9153 136.309 49.864 124.974 49.2852C119.224 48.9916 113.206 49.9879 107.35 52.012C112.273 55.1587 116.836 59.1194 120.898 64.0459C130.52 75.7161 126.926 89.8704 118.22 99.7955C109.548 109.682 95.3199 115.98 82.6807 111.811C75.8823 109.568 71.4623 105.145 69.4557 99.5875C67.4644 94.0729 67.9066 87.6096 70.466 81.3049C74.5853 71.1579 82.8473 62.1301 92.7163 55.7805C95.1598 54.2083 97.7106 52.7949 100.331 51.5663C86.0811 44.5107 69.2134 43.4141 52.7148 44.9895C51.8733 45.0699 51.126 44.4529 51.0456 43.6114C50.9653 42.7699 51.5823 42.0226 52.4238 41.9422C70.0102 40.2629 88.5065 41.5232 103.96 50.0024C110.873 47.2802 118.142 45.8712 125.13 46.228C137.543 46.8619 147.736 53.4951 155.266 62.5805C162.787 71.6565 167.734 83.2685 169.692 94.1451C173.461 115.076 169.37 136.175 161.265 155.372C156.692 166.201 150.736 175.29 144.31 183.953C141.573 187.642 138.789 191.208 135.991 194.791C132.15 199.711 128.283 204.664 124.476 210.016C123.987 210.705 123.031 210.866 122.342 210.377ZM103.739 53.3985C100.513 54.7616 97.3659 56.429 94.3726 58.3549C84.9171 64.4384 77.1369 73.0109 73.3024 82.4563C70.9598 88.2268 70.6551 93.8958 72.3349 98.5478C73.9994 103.157 77.6684 106.934 83.6396 108.904C94.7387 112.565 107.761 107.076 115.919 97.7768C124.042 88.5163 126.858 76.0865 118.536 65.9933C114.168 60.6962 109.175 56.5648 103.739 53.3985Z" fill="#FFC033"/>
<path fill-rule="evenodd" clip-rule="evenodd" d="M132.241 207.002C132.698 207.713 132.492 208.66 131.781 209.118C131.707 209.165 131.6 209.234 131.466 209.321C130.441 209.985 127.776 211.709 125.192 213.233C123.738 214.091 122.265 214.913 121.103 215.448C120.538 215.708 119.961 215.941 119.463 216.057C119.228 216.111 118.876 216.173 118.499 216.123C118.093 216.068 117.393 215.826 117.078 215.048C116.631 213.941 116.784 212.712 117.015 211.726C117.255 210.699 117.663 209.618 118.019 208.686L118.048 208.61C118.411 207.656 118.706 206.882 118.853 206.26C118.912 206.012 118.931 205.848 118.935 205.751C118.517 205.139 118.594 204.297 119.15 203.774C119.766 203.194 120.734 203.223 121.314 203.839C121.806 204.362 121.96 204.995 121.99 205.507C122.02 206.01 121.938 206.517 121.832 206.964C121.637 207.791 121.274 208.74 120.946 209.602C120.923 209.66 120.901 209.718 120.879 209.776C120.512 210.739 120.181 211.63 119.995 212.424C119.98 212.487 119.967 212.547 119.955 212.606C120.954 212.135 122.263 211.407 123.637 210.597C126.159 209.109 128.761 207.425 129.798 206.754C129.936 206.665 130.047 206.593 130.126 206.542C130.837 206.085 131.784 206.291 132.241 207.002ZM118.722 213.084C118.722 213.084 118.726 213.083 118.733 213.083C118.726 213.084 118.722 213.084 118.722 213.084Z" fill="#FFC033"/>
<rect width="137" height="42" transform="translate(71.9629 121.908)" fill="white"/>
<path d="M85.926 149.908L82.3464 136.817H83.9572L86.693 147.479H86.8208L89.6078 136.817H91.3976L94.1845 147.479H94.3123L97.0481 136.817H98.6589L95.0794 149.908H93.443L90.5538 139.476H90.4515L87.5623 149.908H85.926ZM102.405 150.138C101.782 150.138 101.218 150.021 100.711 149.786C100.204 149.548 99.801 149.205 99.5027 148.757C99.2044 148.306 99.0552 147.76 99.0552 147.121C99.0552 146.558 99.166 146.103 99.3876 145.753C99.6092 145.399 99.9054 145.122 100.276 144.922C100.647 144.722 101.056 144.573 101.503 144.475C101.955 144.372 102.409 144.291 102.865 144.232C103.461 144.155 103.945 144.098 104.316 144.059C104.691 144.017 104.964 143.946 105.134 143.848C105.309 143.75 105.396 143.58 105.396 143.337V143.286C105.396 142.655 105.224 142.165 104.878 141.816C104.537 141.466 104.02 141.291 103.325 141.291C102.605 141.291 102.04 141.449 101.631 141.764C101.222 142.08 100.934 142.416 100.768 142.774L99.3365 142.263C99.5922 141.666 99.9331 141.202 100.359 140.87C100.79 140.533 101.258 140.299 101.765 140.166C102.277 140.03 102.78 139.962 103.274 139.962C103.589 139.962 103.952 140 104.361 140.077C104.774 140.149 105.172 140.301 105.556 140.531C105.944 140.761 106.265 141.108 106.521 141.573C106.777 142.037 106.905 142.659 106.905 143.439V149.908H105.396V148.578H105.319C105.217 148.791 105.047 149.019 104.808 149.262C104.569 149.505 104.252 149.712 103.856 149.882C103.459 150.053 102.976 150.138 102.405 150.138ZM102.635 148.783C103.231 148.783 103.734 148.666 104.143 148.431C104.557 148.197 104.868 147.894 105.077 147.524C105.29 147.153 105.396 146.763 105.396 146.354V144.973C105.332 145.05 105.192 145.12 104.974 145.184C104.761 145.244 104.514 145.297 104.233 145.344C103.956 145.387 103.685 145.425 103.421 145.459C103.161 145.489 102.95 145.514 102.788 145.536C102.396 145.587 102.03 145.67 101.689 145.785C101.352 145.896 101.079 146.064 100.871 146.29C100.666 146.512 100.564 146.814 100.564 147.198C100.564 147.722 100.758 148.118 101.145 148.387C101.537 148.651 102.034 148.783 102.635 148.783ZM113.928 140.09V141.368H108.84V140.09H113.928ZM110.323 137.737H111.831V147.095C111.831 147.522 111.893 147.841 112.017 148.054C112.145 148.263 112.306 148.404 112.502 148.476C112.703 148.544 112.914 148.578 113.135 148.578C113.301 148.578 113.438 148.57 113.544 148.553C113.651 148.531 113.736 148.514 113.8 148.502L114.107 149.857C114.005 149.895 113.862 149.933 113.679 149.972C113.495 150.014 113.263 150.036 112.982 150.036C112.556 150.036 112.138 149.944 111.729 149.761C111.324 149.578 110.988 149.299 110.719 148.924C110.455 148.549 110.323 148.076 110.323 147.504V137.737ZM120.08 150.112C119.16 150.112 118.367 149.895 117.702 149.46C117.038 149.026 116.526 148.427 116.168 147.664C115.81 146.902 115.631 146.03 115.631 145.05C115.631 144.053 115.815 143.173 116.181 142.41C116.552 141.643 117.067 141.044 117.728 140.614C118.393 140.179 119.168 139.962 120.055 139.962C120.745 139.962 121.367 140.09 121.921 140.345C122.475 140.601 122.929 140.959 123.283 141.419C123.636 141.879 123.856 142.416 123.941 143.03H122.433C122.317 142.583 122.062 142.186 121.665 141.841C121.273 141.492 120.745 141.317 120.08 141.317C119.492 141.317 118.977 141.47 118.533 141.777C118.094 142.08 117.751 142.508 117.504 143.062C117.261 143.612 117.14 144.257 117.14 144.999C117.14 145.757 117.259 146.418 117.498 146.98C117.741 147.543 118.082 147.98 118.521 148.291C118.964 148.602 119.484 148.757 120.08 148.757C120.472 148.757 120.828 148.689 121.148 148.553C121.467 148.416 121.738 148.22 121.96 147.965C122.181 147.709 122.339 147.402 122.433 147.044H123.941C123.856 147.624 123.645 148.146 123.308 148.61C122.976 149.071 122.535 149.437 121.985 149.71C121.44 149.978 120.805 150.112 120.08 150.112ZM127.655 144.002V149.908H126.146V136.817H127.655V141.624H127.783C128.013 141.117 128.358 140.714 128.818 140.416C129.283 140.113 129.901 139.962 130.672 139.962C131.341 139.962 131.927 140.096 132.43 140.365C132.933 140.629 133.322 141.036 133.599 141.585C133.881 142.131 134.021 142.826 134.021 143.669V149.908H132.513V143.772C132.513 142.992 132.31 142.389 131.906 141.963C131.505 141.532 130.949 141.317 130.237 141.317C129.743 141.317 129.3 141.421 128.908 141.63C128.52 141.839 128.213 142.144 127.987 142.544C127.766 142.945 127.655 143.431 127.655 144.002ZM146.113 140.09V141.368H141.025V140.09H146.113ZM142.508 137.737H144.017V147.095C144.017 147.522 144.079 147.841 144.202 148.054C144.33 148.263 144.492 148.404 144.688 148.476C144.888 148.544 145.099 148.578 145.321 148.578C145.487 148.578 145.623 148.57 145.73 148.553C145.836 148.531 145.922 148.514 145.986 148.502L146.292 149.857C146.19 149.895 146.047 149.933 145.864 149.972C145.681 150.014 145.449 150.036 145.167 150.036C144.741 150.036 144.324 149.944 143.915 149.761C143.51 149.578 143.173 149.299 142.905 148.924C142.64 148.549 142.508 148.076 142.508 147.504V137.737ZM152.266 150.112C151.379 150.112 150.602 149.902 149.933 149.48C149.268 149.058 148.748 148.468 148.373 147.709C148.002 146.951 147.817 146.064 147.817 145.05C147.817 144.027 148.002 143.134 148.373 142.372C148.748 141.609 149.268 141.017 149.933 140.595C150.602 140.173 151.379 139.962 152.266 139.962C153.152 139.962 153.928 140.173 154.593 140.595C155.262 141.017 155.781 141.609 156.152 142.372C156.527 143.134 156.715 144.027 156.715 145.05C156.715 146.064 156.527 146.951 156.152 147.709C155.781 148.468 155.262 149.058 154.593 149.48C153.928 149.902 153.152 150.112 152.266 150.112ZM152.266 148.757C152.939 148.757 153.493 148.585 153.928 148.24C154.362 147.894 154.684 147.441 154.893 146.878C155.102 146.316 155.206 145.706 155.206 145.05C155.206 144.394 155.102 143.782 154.893 143.215C154.684 142.649 154.362 142.191 153.928 141.841C153.493 141.492 152.939 141.317 152.266 141.317C151.593 141.317 151.039 141.492 150.604 141.841C150.169 142.191 149.847 142.649 149.639 143.215C149.43 143.782 149.325 144.394 149.325 145.05C149.325 145.706 149.43 146.316 149.639 146.878C149.847 147.441 150.169 147.894 150.604 148.24C151.039 148.585 151.593 148.757 152.266 148.757ZM169.296 136.817H170.881V146.175C170.881 147.01 170.728 147.72 170.421 148.303C170.114 148.887 169.681 149.33 169.123 149.633C168.565 149.936 167.907 150.087 167.148 150.087C166.432 150.087 165.795 149.957 165.237 149.697C164.679 149.433 164.24 149.058 163.92 148.572C163.6 148.086 163.441 147.509 163.441 146.84H165C165 147.21 165.092 147.534 165.275 147.811C165.463 148.084 165.718 148.297 166.042 148.451C166.366 148.604 166.735 148.681 167.148 148.681C167.604 148.681 167.992 148.585 168.311 148.393C168.631 148.201 168.874 147.92 169.04 147.549C169.211 147.174 169.296 146.716 169.296 146.175V136.817ZM177.842 150.112C176.956 150.112 176.178 149.902 175.509 149.48C174.844 149.058 174.324 148.468 173.949 147.709C173.578 146.951 173.393 146.064 173.393 145.05C173.393 144.027 173.578 143.134 173.949 142.372C174.324 141.609 174.844 141.017 175.509 140.595C176.178 140.173 176.956 139.962 177.842 139.962C178.728 139.962 179.504 140.173 180.169 140.595C180.838 141.017 181.358 141.609 181.728 142.372C182.103 143.134 182.291 144.027 182.291 145.05C182.291 146.064 182.103 146.951 181.728 147.709C181.358 148.468 180.838 149.058 180.169 149.48C179.504 149.902 178.728 150.112 177.842 150.112ZM177.842 148.757C178.515 148.757 179.069 148.585 179.504 148.24C179.939 147.894 180.26 147.441 180.469 146.878C180.678 146.316 180.782 145.706 180.782 145.05C180.782 144.394 180.678 143.782 180.469 143.215C180.26 142.649 179.939 142.191 179.504 141.841C179.069 141.492 178.515 141.317 177.842 141.317C177.169 141.317 176.615 141.492 176.18 141.841C175.745 142.191 175.424 142.649 175.215 143.215C175.006 143.782 174.902 144.394 174.902 145.05C174.902 145.706 175.006 146.316 175.215 146.878C175.424 147.441 175.745 147.894 176.18 148.24C176.615 148.585 177.169 148.757 177.842 148.757ZM184.594 149.908V140.09H186.102V149.908H184.594ZM185.361 138.453C185.067 138.453 184.813 138.353 184.6 138.153C184.391 137.953 184.287 137.712 184.287 137.431C184.287 137.149 184.391 136.909 184.6 136.708C184.813 136.508 185.067 136.408 185.361 136.408C185.655 136.408 185.906 136.508 186.115 136.708C186.328 136.909 186.434 137.149 186.434 137.431C186.434 137.712 186.328 137.953 186.115 138.153C185.906 138.353 185.655 138.453 185.361 138.453ZM190.374 144.002V149.908H188.865V140.09H190.322V141.624H190.45C190.68 141.125 191.03 140.725 191.499 140.422C191.967 140.115 192.572 139.962 193.314 139.962C193.979 139.962 194.56 140.098 195.059 140.371C195.558 140.639 195.945 141.049 196.222 141.598C196.499 142.144 196.638 142.834 196.638 143.669V149.908H195.129V143.772C195.129 143 194.929 142.399 194.528 141.969C194.128 141.534 193.578 141.317 192.879 141.317C192.398 141.317 191.967 141.421 191.588 141.63C191.213 141.839 190.917 142.144 190.7 142.544C190.482 142.945 190.374 143.431 190.374 144.002Z" fill="black"/>
</svg>
