<svg width="133" height="93" viewBox="0 0 133 93" fill="none" xmlns="http://www.w3.org/2000/svg">
<path fill-rule="evenodd" clip-rule="evenodd" d="M90.1527 88.5841C89.8864 88.357 89.8546 87.957 90.0817 87.6907C91.8463 85.6213 93.6731 83.6622 95.4642 81.7415C96.7483 80.3644 98.014 79.007 99.2253 77.6427C102.158 74.3399 104.872 70.8936 107.084 66.7191C111.045 59.2466 113.408 50.9405 112.642 42.4815C112.248 38.1182 110.694 33.3631 108.059 29.5449C105.426 25.7308 101.745 22.8915 97.0913 22.2408C94.7306 21.9108 92.2123 22.1031 89.7237 22.7251C91.6397 24.2018 93.3776 26.0011 94.8739 28.1805C98.4184 33.3433 96.422 39.0503 92.4706 42.8274C88.5348 46.5896 82.4379 48.6703 77.3766 46.4916C74.6542 45.3197 72.992 43.3346 72.3664 40.9698C71.7455 38.623 72.1627 35.9734 73.4474 33.4662C75.515 29.4309 79.2505 26.0078 83.5514 23.7476C84.6164 23.188 85.7197 22.6977 86.8453 22.2863C81.2244 18.8585 74.3075 17.7934 67.4457 17.8437C67.0957 17.8462 66.81 17.5646 66.8074 17.2146C66.8048 16.8646 67.0865 16.5788 67.4364 16.5763C74.7506 16.5227 82.3332 17.7146 88.3986 21.7731C91.3487 20.9016 94.3977 20.5846 97.2668 20.9856C102.363 21.6981 106.326 24.8042 109.102 28.8249C111.874 32.8414 113.492 37.8103 113.905 42.3673C114.698 51.1368 112.245 59.6899 108.204 67.3127C105.925 71.6131 103.138 75.1451 100.173 78.4842C98.9103 79.9064 97.6325 81.2759 96.3484 82.6522C94.5854 84.5417 92.8104 86.4439 91.0461 88.513C90.819 88.7794 90.419 88.8112 90.1527 88.5841ZM88.184 23.1657C86.8041 23.6107 85.4455 24.1841 84.141 24.8696C80.0202 27.035 76.5 30.2879 74.5753 34.0441C73.3995 36.3389 73.0678 38.6659 73.5916 40.6456C74.1106 42.6072 75.4866 44.2982 77.8777 45.3275C82.3223 47.2407 87.8925 45.4502 91.5949 41.9112C95.2817 38.3871 96.8945 33.363 93.829 28.8979C92.2202 26.5545 90.311 24.6692 88.184 23.1657Z" fill="#FFC033"/>
<path fill-rule="evenodd" clip-rule="evenodd" d="M94.3565 87.5521C94.5192 87.862 94.3999 88.2451 94.09 88.4077C94.0576 88.4247 94.0113 88.4492 93.9528 88.4801C93.5057 88.7166 92.3442 89.331 91.2232 89.8658C90.5923 90.1667 89.9547 90.452 89.4562 90.6305C89.2134 90.7174 88.9671 90.7926 88.7575 90.8221C88.6588 90.836 88.5113 90.8487 88.3578 90.8143C88.1922 90.7771 87.9123 90.6519 87.8108 90.3196C87.6664 89.8468 87.7741 89.3453 87.9051 88.9471C88.0418 88.532 88.2494 88.1012 88.4297 87.7297L88.4444 87.6994C88.629 87.3192 88.7788 87.0107 88.8621 86.7593C88.8952 86.6594 88.9092 86.5925 88.9142 86.5523C88.764 86.2849 88.8265 85.9406 89.0749 85.7448C89.3498 85.5282 89.7483 85.5754 89.9649 85.8503C90.1489 86.0838 90.1896 86.3506 90.1833 86.5629C90.1771 86.7716 90.1249 86.9777 90.0651 87.158C89.9544 87.492 89.7706 87.8703 89.6036 88.2138C89.5923 88.2371 89.581 88.2602 89.5699 88.2832C89.3835 88.6672 89.2147 89.0223 89.109 89.3433C89.1007 89.3686 89.093 89.393 89.0859 89.4166C89.5151 89.2588 90.0812 89.0063 90.6775 88.7219C91.7715 88.2 92.906 87.6 93.3581 87.3609C93.4184 87.329 93.4666 87.3035 93.5009 87.2855C93.8108 87.1229 94.1939 87.2422 94.3565 87.5521ZM88.5601 89.5692C88.5602 89.5692 88.5617 89.569 88.5645 89.569C88.5615 89.5692 88.5601 89.5693 88.5601 89.5692Z" fill="#FFC033"/>
<path d="M3.11222 72L0.288352 61.8182H1.90412L3.88778 69.7031H3.98224L6.04545 61.8182H7.64631L9.70952 69.7081H9.80398L11.7827 61.8182H13.4034L10.5746 72H9.02841L6.88565 64.3736H6.80611L4.66335 72H3.11222ZM16.1552 72.169C15.6713 72.169 15.2338 72.0795 14.8427 71.9006C14.4516 71.7183 14.1417 71.4548 13.913 71.1101C13.6876 70.7654 13.5749 70.3428 13.5749 69.8423C13.5749 69.4115 13.6578 69.0568 13.8235 68.7784C13.9892 68.5 14.2129 68.2796 14.4947 68.1172C14.7764 67.9548 15.0913 67.8321 15.4393 67.7493C15.7873 67.6664 16.1419 67.6035 16.5032 67.5604C16.9606 67.5073 17.3318 67.4643 17.6168 67.4311C17.9019 67.3946 18.109 67.3366 18.2383 67.2571C18.3675 67.1776 18.4322 67.0483 18.4322 66.8693V66.8345C18.4322 66.4003 18.3095 66.0639 18.0643 65.8253C17.8223 65.5866 17.4611 65.4673 16.9805 65.4673C16.48 65.4673 16.0856 65.5784 15.7972 65.8004C15.5122 66.0192 15.315 66.2628 15.2056 66.5312L13.8086 66.2131C13.9743 65.7491 14.2163 65.3745 14.5344 65.0895C14.8559 64.8011 15.2255 64.5923 15.6431 64.4631C16.0607 64.3305 16.4999 64.2642 16.9606 64.2642C17.2655 64.2642 17.5887 64.3007 17.93 64.3736C18.2747 64.4432 18.5962 64.5724 18.8945 64.7614C19.1961 64.9503 19.4431 65.2204 19.6353 65.5717C19.8275 65.9197 19.9237 66.3722 19.9237 66.929V72H18.4719V70.956H18.4123C18.3162 71.1482 18.172 71.3371 17.9798 71.5227C17.7875 71.7083 17.5406 71.8625 17.239 71.9851C16.9374 72.1077 16.5761 72.169 16.1552 72.169ZM16.4783 70.9759C16.8893 70.9759 17.2406 70.8946 17.5323 70.7322C17.8273 70.5698 18.051 70.3577 18.2035 70.0959C18.3593 69.8307 18.4371 69.5473 18.4371 69.2457V68.2614C18.3841 68.3144 18.2814 68.3641 18.1289 68.4105C17.9798 68.4536 17.8091 68.4917 17.6168 68.5249C17.4246 68.5547 17.2373 68.5829 17.055 68.6094C16.8728 68.6326 16.7203 68.6525 16.5977 68.669C16.3093 68.7055 16.0458 68.7668 15.8072 68.853C15.5719 68.9392 15.3829 69.0634 15.2404 69.2259C15.1012 69.3849 15.0316 69.5971 15.0316 69.8622C15.0316 70.2301 15.1675 70.5085 15.4393 70.6974C15.7111 70.883 16.0574 70.9759 16.4783 70.9759ZM25.4682 64.3636V65.5568H21.2971V64.3636H25.4682ZM22.4157 62.5341H23.9022V69.7578C23.9022 70.0462 23.9453 70.2633 24.0314 70.4091C24.1176 70.5516 24.2286 70.6494 24.3645 70.7024C24.5037 70.7521 24.6545 70.777 24.8169 70.777C24.9363 70.777 25.0407 70.7687 25.1301 70.7521C25.2196 70.7356 25.2892 70.7223 25.339 70.7124L25.6074 71.9403C25.5212 71.9735 25.3986 72.0066 25.2395 72.0398C25.0804 72.0762 24.8816 72.0961 24.6429 72.0994C24.2518 72.1061 23.8873 72.0365 23.5492 71.8906C23.2111 71.7448 22.9377 71.5194 22.7289 71.2145C22.5201 70.9096 22.4157 70.5268 22.4157 70.0661V62.5341ZM30.2472 72.1541C29.508 72.1541 28.8717 71.9867 28.3381 71.652C27.8078 71.3139 27.4001 70.8482 27.1151 70.255C26.83 69.6617 26.6875 68.9822 26.6875 68.2166C26.6875 67.4411 26.8333 66.7566 27.125 66.1634C27.4167 65.5668 27.8277 65.1011 28.358 64.7663C28.8883 64.4316 29.513 64.2642 30.2322 64.2642C30.8123 64.2642 31.3293 64.3719 31.7834 64.5874C32.2375 64.7995 32.6037 65.0978 32.8821 65.4822C33.1638 65.8667 33.3312 66.3158 33.3842 66.8295H31.9375C31.858 66.4716 31.6757 66.1634 31.3906 65.9048C31.1089 65.6463 30.7311 65.517 30.2571 65.517C29.8428 65.517 29.4799 65.6264 29.1683 65.8452C28.8601 66.0606 28.6198 66.3688 28.4474 66.7699C28.2751 67.1676 28.1889 67.6383 28.1889 68.1818C28.1889 68.7386 28.2734 69.2192 28.4425 69.6236C28.6115 70.0279 28.8501 70.3411 29.1584 70.5632C29.4699 70.7853 29.8362 70.8963 30.2571 70.8963C30.5388 70.8963 30.794 70.8449 31.0227 70.7422C31.2547 70.6361 31.4486 70.4853 31.6044 70.2898C31.7635 70.0942 31.8745 69.8589 31.9375 69.5838H33.3842C33.3312 70.0777 33.1705 70.5185 32.902 70.9062C32.6335 71.294 32.2739 71.599 31.8232 71.821C31.3757 72.0431 30.8504 72.1541 30.2472 72.1541ZM36.4604 67.4659V72H34.9739V61.8182H36.4405V65.6065H36.535C36.714 65.1955 36.9874 64.8691 37.3553 64.6271C37.7232 64.3852 38.2038 64.2642 38.7971 64.2642C39.3207 64.2642 39.7781 64.3719 40.1692 64.5874C40.5636 64.8028 40.8685 65.1243 41.084 65.5518C41.3027 65.9761 41.4121 66.5064 41.4121 67.1428V72H39.9256V67.3217C39.9256 66.7616 39.7814 66.3274 39.4931 66.0192C39.2047 65.7076 38.8037 65.5518 38.29 65.5518C37.9386 65.5518 37.6238 65.6264 37.3453 65.7756C37.0703 65.9247 36.8532 66.1435 36.6941 66.4318C36.5383 66.7169 36.4604 67.0616 36.4604 67.4659ZM50.6655 64.3636V65.5568H46.4943V64.3636H50.6655ZM47.6129 62.5341H49.0994V69.7578C49.0994 70.0462 49.1425 70.2633 49.2287 70.4091C49.3149 70.5516 49.4259 70.6494 49.5618 70.7024C49.701 70.7521 49.8518 70.777 50.0142 70.777C50.1335 70.777 50.2379 70.7687 50.3274 70.7521C50.4169 70.7356 50.4865 70.7223 50.5362 70.7124L50.8047 71.9403C50.7185 71.9735 50.5959 72.0066 50.4368 72.0398C50.2777 72.0762 50.0788 72.0961 49.8402 72.0994C49.4491 72.1061 49.0845 72.0365 48.7464 71.8906C48.4084 71.7448 48.1349 71.5194 47.9261 71.2145C47.7173 70.9096 47.6129 70.5268 47.6129 70.0661V62.5341ZM55.4444 72.1541C54.7285 72.1541 54.1038 71.9901 53.5701 71.6619C53.0365 71.3338 52.6222 70.8748 52.3272 70.2848C52.0323 69.6948 51.8848 69.0054 51.8848 68.2166C51.8848 67.4245 52.0323 66.7318 52.3272 66.1385C52.6222 65.5452 53.0365 65.0845 53.5701 64.7564C54.1038 64.4283 54.7285 64.2642 55.4444 64.2642C56.1603 64.2642 56.7851 64.4283 57.3187 64.7564C57.8523 65.0845 58.2666 65.5452 58.5616 66.1385C58.8566 66.7318 59.0041 67.4245 59.0041 68.2166C59.0041 69.0054 58.8566 69.6948 58.5616 70.2848C58.2666 70.8748 57.8523 71.3338 57.3187 71.6619C56.7851 71.9901 56.1603 72.1541 55.4444 72.1541ZM55.4494 70.9062C55.9134 70.9062 56.2979 70.7836 56.6028 70.5384C56.9077 70.2931 57.1331 69.9666 57.2789 69.5589C57.4281 69.1513 57.5027 68.7022 57.5027 68.2116C57.5027 67.7244 57.4281 67.277 57.2789 66.8693C57.1331 66.4583 56.9077 66.1286 56.6028 65.88C56.2979 65.6314 55.9134 65.5071 55.4494 65.5071C54.9821 65.5071 54.5943 65.6314 54.286 65.88C53.9811 66.1286 53.7541 66.4583 53.6049 66.8693C53.4591 67.277 53.3862 67.7244 53.3862 68.2116C53.3862 68.7022 53.4591 69.1513 53.6049 69.5589C53.7541 69.9666 53.9811 70.2931 54.286 70.5384C54.5943 70.7836 54.9821 70.9062 55.4494 70.9062ZM68.4451 61.8182H69.9764V69.0369C69.9764 69.6899 69.8471 70.2483 69.5886 70.7124C69.3334 71.1764 68.9738 71.531 68.5098 71.7763C68.0458 72.0182 67.5022 72.1392 66.8791 72.1392C66.3057 72.1392 65.7903 72.0348 65.3329 71.826C64.8788 71.6172 64.5192 71.3139 64.2541 70.9162C63.9922 70.5152 63.8613 70.0279 63.8613 69.4545H65.3876C65.3876 69.7363 65.4522 69.9799 65.5815 70.1854C65.7141 70.3909 65.8947 70.5516 66.1234 70.6676C66.3554 70.7803 66.6206 70.8366 66.9189 70.8366C67.2437 70.8366 67.5188 70.7687 67.7441 70.6328C67.9728 70.4936 68.1468 70.2898 68.2662 70.0213C68.3855 69.7528 68.4451 69.4247 68.4451 69.0369V61.8182ZM75.3097 72.1541C74.5938 72.1541 73.969 71.9901 73.4354 71.6619C72.9018 71.3338 72.4875 70.8748 72.1925 70.2848C71.8975 69.6948 71.75 69.0054 71.75 68.2166C71.75 67.4245 71.8975 66.7318 72.1925 66.1385C72.4875 65.5452 72.9018 65.0845 73.4354 64.7564C73.969 64.4283 74.5938 64.2642 75.3097 64.2642C76.0256 64.2642 76.6503 64.4283 77.1839 64.7564C77.7176 65.0845 78.1319 65.5452 78.4268 66.1385C78.7218 66.7318 78.8693 67.4245 78.8693 68.2166C78.8693 69.0054 78.7218 69.6948 78.4268 70.2848C78.1319 70.8748 77.7176 71.3338 77.1839 71.6619C76.6503 71.9901 76.0256 72.1541 75.3097 72.1541ZM75.3146 70.9062C75.7786 70.9062 76.1631 70.7836 76.468 70.5384C76.773 70.2931 76.9983 69.9666 77.1442 69.5589C77.2933 69.1513 77.3679 68.7022 77.3679 68.2116C77.3679 67.7244 77.2933 67.277 77.1442 66.8693C76.9983 66.4583 76.773 66.1286 76.468 65.88C76.1631 65.6314 75.7786 65.5071 75.3146 65.5071C74.8473 65.5071 74.4595 65.6314 74.1513 65.88C73.8464 66.1286 73.6193 66.4583 73.4702 66.8693C73.3243 67.277 73.2514 67.7244 73.2514 68.2116C73.2514 68.7022 73.3243 69.1513 73.4702 69.5589C73.6193 69.9666 73.8464 70.2931 74.1513 70.5384C74.4595 70.7836 74.8473 70.9062 75.3146 70.9062ZM80.5286 72V64.3636H82.0151V72H80.5286ZM81.2793 63.1854C81.0208 63.1854 80.7987 63.0992 80.6131 62.9268C80.4308 62.7512 80.3397 62.5424 80.3397 62.3004C80.3397 62.0552 80.4308 61.8464 80.6131 61.674C80.7987 61.4983 81.0208 61.4105 81.2793 61.4105C81.5378 61.4105 81.7582 61.4983 81.9405 61.674C82.1261 61.8464 82.2189 62.0552 82.2189 62.3004C82.2189 62.5424 82.1261 62.7512 81.9405 62.9268C81.7582 63.0992 81.5378 63.1854 81.2793 63.1854ZM85.5014 67.4659V72H84.0149V64.3636H85.4418V65.6065H85.5362C85.7119 65.2022 85.987 64.8774 86.3615 64.6321C86.7393 64.3868 87.215 64.2642 87.7884 64.2642C88.3087 64.2642 88.7644 64.3736 89.1555 64.5923C89.5466 64.8078 89.8499 65.1293 90.0653 65.5568C90.2808 65.9844 90.3885 66.513 90.3885 67.1428V72H88.902V67.3217C88.902 66.7682 88.7578 66.3357 88.4695 66.0241C88.1811 65.7093 87.785 65.5518 87.2812 65.5518C86.9366 65.5518 86.63 65.6264 86.3615 65.7756C86.0964 65.9247 85.8859 66.1435 85.7301 66.4318C85.5777 66.7169 85.5014 67.0616 85.5014 67.4659Z" fill="black"/>
</svg>
