<svg width="293" height="14" viewBox="0 0 293 14" fill="none" xmlns="http://www.w3.org/2000/svg">
<path fill-rule="evenodd" clip-rule="evenodd" d="M108.876 0.495907C115.169 0.668518 121.318 0.837148 127.232 0.909761C142.329 1.0951 157.36 1.51796 172.354 2.15784C193.067 1.928 213.784 1.92768 234.486 2.08102C236.484 2.09582 238.643 2.2163 240.543 2.41826C242.413 2.61701 244.126 2.90393 245.178 3.28316C245.447 3.37998 245.717 3.49825 245.949 3.64813C246.156 3.78126 246.481 4.03296 246.633 4.45489C246.822 4.98294 246.641 5.46466 246.379 5.77836C246.155 6.04742 245.852 6.22881 245.587 6.35776C245.248 6.52257 244.811 6.67619 244.278 6.82263C258.464 8.04022 272.657 9.4237 286.881 10.9555C288.503 11.1302 289.723 11.267 290.577 11.3697C291.388 11.4674 291.951 11.5428 292.18 11.5995C292.209 11.6066 292.294 11.6276 292.387 11.668L292.389 11.6688C292.422 11.6833 292.56 11.743 292.696 11.8702C292.772 11.9491 292.923 12.1766 292.984 12.3301C293.027 12.5448 292.978 12.9723 292.891 13.168C292.802 13.2989 292.616 13.4816 292.53 13.5406C292.47 13.5751 292.365 13.624 292.319 13.6409C292.231 13.6718 292.156 13.6846 292.125 13.6897C292.053 13.7011 291.99 13.7045 291.956 13.706C291.818 13.712 291.61 13.7061 291.381 13.6963C290.895 13.6756 290.119 13.6279 289.103 13.5583C285.681 13.3241 279.394 12.8322 271.694 12.2298C270.228 12.1151 268.71 11.9964 267.152 11.8747C254.516 10.8881 239.171 9.7046 226.393 8.85944C217.331 9.29553 208.15 9.10205 199.097 8.91126C194.162 8.80726 189.265 8.70405 184.446 8.70405H121.53C120.949 8.70405 120.478 8.2328 120.478 7.65148C120.478 7.07016 120.949 6.5989 121.53 6.5989H171.696C155.581 6.09951 139.509 5.66529 123.444 5.27205C110.336 5.68158 97.2448 6.21412 84.1474 6.74689C72.9797 7.20117 61.8078 7.65562 50.6179 8.03413C49.1356 8.08427 47.1004 8.17457 44.8152 8.27597C40.8338 8.45261 36.0938 8.66292 32.1976 8.75316C29.1467 8.82381 26.5067 8.82476 25.1218 8.66389C24.7849 8.62475 24.4328 8.56719 24.1524 8.46316C24.0307 8.41801 23.7769 8.31381 23.5711 8.08336C23.4539 7.95212 23.3306 7.75493 23.2893 7.49337C23.2471 7.22623 23.3057 6.98822 23.3945 6.80749C23.5469 6.49744 23.8004 6.3257 23.9149 6.25348C24.0613 6.16125 24.2244 6.08563 24.3817 6.02202C24.6997 5.89345 25.1209 5.76375 25.6344 5.62927C28.9444 4.76237 32.3302 4.02122 35.7761 3.38942C24.2243 3.1574 12.6464 2.92387 1.03048 2.67994C0.449288 2.66774 -0.0119679 2.18669 0.000236716 1.6055C0.0124414 1.02431 0.493485 0.563049 1.07468 0.575254C14.0307 0.847321 26.9408 1.10649 39.8213 1.36506C42.7416 1.42368 45.6604 1.48227 48.5779 1.54098C68.3099 -0.616722 89.2957 -0.0411353 108.876 0.495907ZM48.648 3.64798C42.3284 4.3444 36.1445 5.32541 30.1814 6.68413C30.8024 6.67657 31.4607 6.66451 32.1489 6.64857C36.0345 6.55858 40.7024 6.35125 44.6607 6.17544C46.9595 6.07334 49.0189 5.98187 50.5467 5.93019C61.6998 5.55291 72.8645 5.09884 84.0333 4.6446C85.4744 4.58599 86.9155 4.52738 88.3567 4.46893C75.1369 4.18395 61.9067 3.91479 48.648 3.64798ZM123.438 3.1661C108.014 2.78863 92.5991 2.44892 77.1644 2.12557C87.7639 2.02765 98.3914 2.31789 108.684 2.59898C115.013 2.77182 121.215 2.9412 127.207 3.01475C127.504 3.01841 127.802 3.02215 128.099 3.02599C126.545 3.07081 124.991 3.11759 123.438 3.1661ZM166.508 4.33421C173.809 4.55431 181.118 4.78726 188.438 5.03531C183.069 4.75072 177.698 4.49314 172.321 4.26349C170.383 4.28503 168.445 4.30859 166.508 4.33421ZM207.975 4.0797C217.106 4.6728 226.231 5.34077 235.357 6.07893C236.472 5.96213 237.584 5.83204 238.692 5.68743C240.416 5.46256 241.746 5.24135 242.74 5.02844C242.897 4.99478 243.045 4.96163 243.183 4.92908C242.406 4.77228 241.428 4.62936 240.321 4.51161C238.492 4.31726 236.402 4.20043 234.47 4.18611C225.64 4.12071 216.808 4.08327 207.975 4.0797ZM244.828 5.43103C244.827 5.43109 244.823 5.42808 244.815 5.42178C244.824 5.42782 244.828 5.43097 244.828 5.43103Z" fill="#FFC033"/>
</svg>
