<svg width="30" height="31" viewBox="0 0 30 31" fill="none" xmlns="http://www.w3.org/2000/svg">
<path d="M27.5 17.0288V19.5288C27.5 25.7788 25 28.2788 18.75 28.2788H11.25C5 28.2788 2.5 25.7788 2.5 19.5288V17.6288" stroke="black" stroke-width="1.5" stroke-linecap="round" stroke-linejoin="round"/>
<path d="M13.75 3.27881H11.25C5 3.27881 2.5 5.77881 2.5 12.0288" stroke="black" stroke-width="1.5" stroke-linecap="round" stroke-linejoin="round"/>
<path d="M24.9119 12.0414L26.2244 10.7289C27.9244 9.02888 28.7244 7.05388 26.2244 4.55388C23.7244 2.05388 21.7494 2.85388 20.0494 4.55388L10.1994 14.4039C9.82436 14.7789 9.44936 15.5164 9.37436 16.0539L8.83686 19.8164C8.63686 21.1789 9.59936 22.1289 10.9619 21.9414L14.7244 21.4039C15.2494 21.3289 15.9869 20.9539 16.3744 20.5789L20.3494 16.6039L21.2619 15.6914" stroke="black" stroke-width="1.5" stroke-miterlimit="10" stroke-linecap="round" stroke-linejoin="round"/>
<path d="M18.6367 5.96631C19.4742 8.95381 21.8117 11.2913 24.8117 12.1413" stroke="black" stroke-width="1.5" stroke-miterlimit="10" stroke-linecap="round" stroke-linejoin="round"/>
</svg>
