<svg width="31" height="31" viewBox="0 0 31 31" fill="none" xmlns="http://www.w3.org/2000/svg">
<path d="M6.01168 8.41446C5.27418 6.03946 6.59917 4.72693 8.96167 5.50193L12.6492 6.71444C13.2742 6.91444 14.2117 6.77692 14.7367 6.38942L18.5867 3.61442C20.6742 2.11442 22.3366 2.98945 22.2866 5.55195L22.1991 10.2895C22.1866 10.9395 22.5992 11.8019 23.1242 12.1894L26.2242 14.5394C28.2117 16.0394 27.8867 17.8769 25.5117 18.6269L21.4742 19.8894C20.7992 20.1019 20.0867 20.8394 19.9117 21.5269L18.9492 25.2019C18.1867 28.1019 16.2866 28.3894 14.7116 25.8394L12.5116 22.277C12.1116 21.627 11.1616 21.1394 10.4116 21.1769L6.23667 21.3894C3.24917 21.5394 2.39916 19.8144 4.34916 17.5394L6.82414 14.6645C7.06164 14.3895 7.22416 14.0144 7.31166 13.6144" stroke="black" stroke-width="1.5" stroke-linecap="round" stroke-linejoin="round"/>
<path d="M28.0609 27.8895L24.2734 24.1021" stroke="black" stroke-width="1.5" stroke-linecap="round" stroke-linejoin="round"/>
</svg>
