<svg width="64" height="7" viewBox="0 0 64 7" fill="none" xmlns="http://www.w3.org/2000/svg">
<path fill-rule="evenodd" clip-rule="evenodd" d="M28.37 1.89026C19.207 2.80311 17.7906 2.94822 16.3738 3.08882C14.7737 3.2476 13.173 3.40062 0.414122 4.64706C0.208523 4.66714 0.0240733 4.53078 0.00214281 4.34248C-0.0197878 4.15418 0.129105 3.98525 0.334704 3.96516C13.0931 2.71877 14.6936 2.56577 16.2934 2.40702C17.7372 2.26375 19.1805 2.11578 28.8254 1.15509C29.2758 1.11022 29.9357 1.03624 30.6531 0.955796C31.3823 0.874037 32.171 0.785611 32.8596 0.714318C33.5287 0.645047 34.1062 0.591708 34.4078 0.582173C34.4803 0.57988 34.5576 0.579252 34.6207 0.585722L34.6226 0.585915C34.6431 0.587977 34.7197 0.595675 34.7952 0.633867C34.8341 0.653528 34.9459 0.718126 34.9834 0.857554C35.0241 1.00911 34.9451 1.12125 34.9063 1.16439C34.8666 1.20849 34.8238 1.23431 34.8046 1.2453C34.7811 1.25873 34.7589 1.26876 34.742 1.2758C34.7083 1.28991 34.6717 1.30199 34.6375 1.31233C34.5678 1.3334 34.4755 1.35672 34.3627 1.38255C32.1861 1.88092 29.956 2.29542 27.7289 2.70935C26.7172 2.89741 25.706 3.08535 24.7008 3.28098C21.6964 3.86569 18.73 4.5216 15.8944 5.46074C15.9567 5.45642 16.0198 5.45175 16.0839 5.447L16.0918 5.44641C16.2647 5.43359 16.4454 5.42019 16.6255 5.41321C20.1808 5.27563 25.6149 4.79239 28.8781 4.50012C31.5466 4.26112 34.2432 3.94096 36.9518 3.61938C41.5649 3.07169 46.2129 2.51985 50.8167 2.35768C50.8661 2.35594 50.9046 2.35463 50.9316 2.35393C50.9448 2.35359 50.9581 2.35331 50.9697 2.35328C50.9732 2.35327 50.9781 2.35328 50.9837 2.35338C50.9868 2.35343 50.9901 2.35351 50.9935 2.35364C50.9982 2.35381 51.0064 2.35416 51.0163 2.35502L51.0166 2.35505C51.0228 2.35558 51.0475 2.3577 51.0776 2.36493C51.0897 2.36782 51.1313 2.37796 51.1779 2.40399C51.2094 2.42158 51.3686 2.51819 51.3569 2.71545C51.3471 2.88105 51.2191 2.96404 51.2008 2.97588L51.1999 2.97643C51.1643 2.99967 51.1323 3.01162 51.1214 3.01562C51.0958 3.025 51.0744 3.02968 51.0686 3.03095L51.0685 3.03099C51.0595 3.03296 51.052 3.0343 51.0475 3.03506C51.0322 3.03769 51.0165 3.03958 51.0082 3.04055C50.9878 3.04297 50.9583 3.04608 50.9255 3.04953L50.9237 3.04972C50.7876 3.06406 50.5343 3.09073 50.242 3.13462C50.1638 3.14637 50.0836 3.15924 50.0027 3.17329C51.5052 3.19283 53.0185 3.1691 54.5241 3.13811C55.9415 3.10894 57.3582 2.93093 58.7959 2.7503C58.8558 2.74277 58.9158 2.73524 58.9758 2.72771C60.467 2.54062 61.9806 2.35743 63.4939 2.35743C63.7007 2.35743 63.8683 2.51094 63.8683 2.70031C63.8683 2.88968 63.7007 3.04319 63.4939 3.04319C62.039 3.04319 60.5738 3.21938 59.0774 3.40713C59.0129 3.41523 58.9483 3.42334 58.8837 3.43146C57.4573 3.61074 56.0021 3.79363 54.5409 3.8237C52.7928 3.85968 51.0208 3.88623 49.2632 3.84598C49.2483 3.84564 49.2309 3.84533 49.2114 3.84497C49.0849 3.84267 48.8711 3.83878 48.6984 3.81651C48.6142 3.80566 48.4647 3.78288 48.3467 3.71264C48.2815 3.67381 48.1653 3.58356 48.1438 3.42402C48.1301 3.32159 48.1618 3.23736 48.2002 3.176C44.5037 3.41385 40.806 3.85332 37.1054 4.29315C34.3891 4.61597 31.6713 4.93899 28.951 5.18263C25.6947 5.47428 20.2376 5.95981 16.6571 6.09837C16.4915 6.10478 16.323 6.11727 16.1453 6.13045L16.1443 6.13053C15.9688 6.14354 15.7844 6.15721 15.5995 6.1642C15.2302 6.17817 14.8345 6.16694 14.4427 6.06277C14.389 6.04849 14.2207 5.99699 14.1485 5.82765C14.0701 5.64372 14.1751 5.49707 14.2114 5.45302C14.257 5.39759 14.3125 5.35676 14.3505 5.33112C14.3929 5.30254 14.4389 5.27625 14.4829 5.25308C14.654 5.16286 14.8779 5.0759 14.9982 5.03392C18.0783 3.95931 21.3074 3.24032 24.5452 2.61019C25.5652 2.41168 26.5843 2.22227 27.6001 2.03348C27.857 1.98575 28.1136 1.93805 28.37 1.89026ZM14.7866 5.88898C14.7866 5.88894 14.7871 5.88856 14.7881 5.88782C14.7871 5.88864 14.7866 5.88903 14.7866 5.88898Z" fill="#FFC033"/>
</svg>
