<svg width="20" height="20" viewBox="0 0 20 20" fill="none" xmlns="http://www.w3.org/2000/svg">
<path d="M6.98242 10.0001L8.99076 12.0167L13.0158 7.9834" stroke="url(#paint0_linear_1893_929)" stroke-width="1.5" stroke-linecap="round" stroke-linejoin="round"/>
<path d="M3.53242 5.16657C3.53242 4.28324 4.25742 3.55824 5.14075 3.55824H6.58242C6.91575 3.55824 7.38242 3.38324 7.63242 3.1749L8.94909 2.0499C9.53242 1.55824 10.4741 1.55824 11.0408 2.0499L12.3574 3.1749C12.6074 3.38324 13.0824 3.55824 13.4158 3.55824H14.8324C15.7158 3.55824 16.4408 4.28324 16.4408 5.16657V6.58324C16.4408 6.91657 16.6158 7.38324 16.8241 7.63324L17.9491 8.9499C18.4408 9.53324 18.4408 10.4749 17.9491 11.0416L16.8241 12.3582C16.6158 12.6082 16.4408 13.0749 16.4408 13.4082V14.8249C16.4408 15.7082 15.7158 16.4332 14.8324 16.4332H13.4158C13.0824 16.4332 12.6158 16.6082 12.3658 16.8166L11.0491 17.9416C10.4658 18.4332 9.52409 18.4332 8.95742 17.9416L7.64075 16.8166C7.39075 16.6082 6.91575 16.4332 6.59075 16.4332H5.14075C4.25742 16.4332 3.53242 15.7082 3.53242 14.8249V13.3999C3.53242 13.0749 3.36575 12.5999 3.15742 12.3582L2.03242 11.0332C1.54909 10.4582 1.54909 9.5249 2.03242 8.9499L2.49909 8.3999" stroke="url(#paint1_linear_1893_929)" stroke-width="1.5" stroke-linecap="round" stroke-linejoin="round"/>
<defs>
<linearGradient id="paint0_linear_1893_929" x1="6.98242" y1="10.0001" x2="13.0158" y2="10.0001" gradientUnits="userSpaceOnUse">
<stop stop-color="#FFC033"/>
<stop offset="1" stop-color="#FF9900"/>
</linearGradient>
<linearGradient id="paint1_linear_1893_929" x1="1.66992" y1="9.99574" x2="18.3178" y2="9.99574" gradientUnits="userSpaceOnUse">
<stop stop-color="#FFC033"/>
<stop offset="1" stop-color="#FF9900"/>
</linearGradient>
</defs>
</svg>
